<mxfile host="app.diagrams.net" modified="2022-05-12T04:50:29.279Z" agent="5.0 (Windows NT 10.0; Win64; x64) AppleWebKit/537.36 (KHTML, like Gecko) Chrome/101.0.4951.54 Safari/537.36" etag="LNjmpAVa9ZLHe_57kSqs" version="18.0.2" type="github">
  <diagram id="fypBjtiRUfnVyfbXRJIA" name="Page-1">
    <mxGraphModel dx="2591" dy="706" grid="1" gridSize="10" guides="1" tooltips="1" connect="1" arrows="1" fold="1" page="1" pageScale="1" pageWidth="1169" pageHeight="827" math="0" shadow="0">
      <root>
        <mxCell id="0" />
        <mxCell id="1" parent="0" />
        <mxCell id="obUvVuYNaNYTeRpNwb37-78" style="edgeStyle=orthogonalEdgeStyle;rounded=0;orthogonalLoop=1;jettySize=auto;html=1;exitX=0.5;exitY=1;exitDx=0;exitDy=0;entryX=0.5;entryY=0;entryDx=0;entryDy=0;" parent="1" source="obUvVuYNaNYTeRpNwb37-83" target="obUvVuYNaNYTeRpNwb37-104" edge="1">
          <mxGeometry relative="1" as="geometry">
            <mxPoint x="-320" y="140" as="sourcePoint" />
          </mxGeometry>
        </mxCell>
        <mxCell id="obUvVuYNaNYTeRpNwb37-79" value="&lt;font face=&quot;Lucida Console&quot; style=&quot;font-size: 14px&quot;&gt;singletonObjects&lt;/font&gt;" style="rounded=0;whiteSpace=wrap;html=1;fillColor=#dae8fc;strokeColor=#6c8ebf;" parent="1" vertex="1">
          <mxGeometry x="-1032" y="100" width="200" height="50" as="geometry" />
        </mxCell>
        <mxCell id="obUvVuYNaNYTeRpNwb37-80" value="&lt;font face=&quot;Lucida Console&quot; style=&quot;font-size: 14px&quot;&gt;earlySingletonObjects&lt;/font&gt;" style="rounded=0;whiteSpace=wrap;html=1;fillColor=#dae8fc;strokeColor=#6c8ebf;" parent="1" vertex="1">
          <mxGeometry x="-1032" y="220" width="200" height="50" as="geometry" />
        </mxCell>
        <mxCell id="obUvVuYNaNYTeRpNwb37-81" value="&lt;font face=&quot;Lucida Console&quot;&gt;&lt;span style=&quot;font-size: 14px&quot;&gt;put(&lt;/span&gt;&lt;/font&gt;&lt;span style=&quot;font-family: &amp;#34;lucida console&amp;#34; ; font-size: 14px&quot;&gt;getObject&lt;/span&gt;&lt;font face=&quot;Lucida Console&quot;&gt;&lt;span style=&quot;font-size: 14px&quot;&gt;)&lt;/span&gt;&lt;/font&gt;" style="edgeStyle=orthogonalEdgeStyle;rounded=0;orthogonalLoop=1;jettySize=auto;html=1;entryX=0;entryY=0.5;entryDx=0;entryDy=0;" parent="1" source="obUvVuYNaNYTeRpNwb37-82" target="obUvVuYNaNYTeRpNwb37-80" edge="1">
          <mxGeometry x="-0.1953" y="-20" relative="1" as="geometry">
            <mxPoint x="-1112" y="230" as="targetPoint" />
            <Array as="points">
              <mxPoint x="-1100" y="365" />
              <mxPoint x="-1100" y="245" />
            </Array>
            <mxPoint as="offset" />
          </mxGeometry>
        </mxCell>
        <mxCell id="obUvVuYNaNYTeRpNwb37-82" value="&lt;font face=&quot;Lucida Console&quot;&gt;&lt;span style=&quot;font-size: 14px&quot;&gt;singletonFactories&lt;/span&gt;&lt;/font&gt;" style="rounded=0;whiteSpace=wrap;html=1;fillColor=#dae8fc;strokeColor=#6c8ebf;" parent="1" vertex="1">
          <mxGeometry x="-1032" y="340" width="200" height="50" as="geometry" />
        </mxCell>
        <mxCell id="obUvVuYNaNYTeRpNwb37-83" value="&lt;span style=&quot;font-family: &amp;#34;lucida console&amp;#34; ; font-size: 14px&quot;&gt;getSingleton&lt;br&gt;&lt;br&gt;(From Cache)&lt;br&gt;&lt;/span&gt;" style="shape=process;whiteSpace=wrap;html=1;backgroundOutline=1;fillColor=#fff2cc;strokeColor=#d6b656;" parent="1" vertex="1">
          <mxGeometry x="-420" y="60" width="200" height="60" as="geometry" />
        </mxCell>
        <mxCell id="obUvVuYNaNYTeRpNwb37-84" value="" style="edgeStyle=orthogonalEdgeStyle;rounded=0;orthogonalLoop=1;jettySize=auto;html=1;entryX=0.5;entryY=0;entryDx=0;entryDy=0;" parent="1" source="obUvVuYNaNYTeRpNwb37-85" target="obUvVuYNaNYTeRpNwb37-110" edge="1">
          <mxGeometry relative="1" as="geometry">
            <mxPoint x="-320" y="690" as="targetPoint" />
          </mxGeometry>
        </mxCell>
        <mxCell id="obUvVuYNaNYTeRpNwb37-85" value="&lt;span style=&quot;font-family: &amp;#34;lucida console&amp;#34; ; font-size: 14px&quot;&gt;getSingleton&lt;br&gt;&lt;br&gt;(Create &amp;amp; Register)&lt;br&gt;&lt;/span&gt;" style="shape=process;whiteSpace=wrap;html=1;backgroundOutline=1;fillColor=#fff2cc;strokeColor=#d6b656;size=0.05238095238095238;" parent="1" vertex="1">
          <mxGeometry x="-420" y="565.5" width="200" height="60" as="geometry" />
        </mxCell>
        <mxCell id="obUvVuYNaNYTeRpNwb37-86" value="Yes" style="edgeStyle=orthogonalEdgeStyle;rounded=0;orthogonalLoop=1;jettySize=auto;html=1;entryX=0;entryY=0.5;entryDx=0;entryDy=0;" parent="1" source="obUvVuYNaNYTeRpNwb37-104" target="obUvVuYNaNYTeRpNwb37-83" edge="1">
          <mxGeometry relative="1" as="geometry">
            <mxPoint x="-450" y="30" as="targetPoint" />
            <Array as="points">
              <mxPoint x="-460" y="220" />
              <mxPoint x="-460" y="90" />
            </Array>
          </mxGeometry>
        </mxCell>
        <mxCell id="obUvVuYNaNYTeRpNwb37-87" value="No" style="edgeStyle=orthogonalEdgeStyle;rounded=0;orthogonalLoop=1;jettySize=auto;html=1;" parent="1" source="obUvVuYNaNYTeRpNwb37-104" target="obUvVuYNaNYTeRpNwb37-91" edge="1">
          <mxGeometry relative="1" as="geometry" />
        </mxCell>
        <mxCell id="obUvVuYNaNYTeRpNwb37-88" style="edgeStyle=orthogonalEdgeStyle;rounded=0;orthogonalLoop=1;jettySize=auto;html=1;exitX=0.5;exitY=1;exitDx=0;exitDy=0;entryX=0.5;entryY=0;entryDx=0;entryDy=0;" parent="1" source="obUvVuYNaNYTeRpNwb37-91" target="obUvVuYNaNYTeRpNwb37-85" edge="1">
          <mxGeometry relative="1" as="geometry">
            <mxPoint x="-310" y="540" as="targetPoint" />
            <Array as="points" />
          </mxGeometry>
        </mxCell>
        <mxCell id="obUvVuYNaNYTeRpNwb37-89" value="No" style="edgeLabel;html=1;align=center;verticalAlign=middle;resizable=0;points=[];" parent="obUvVuYNaNYTeRpNwb37-88" vertex="1" connectable="0">
          <mxGeometry x="0.0629" y="1" relative="1" as="geometry">
            <mxPoint x="-1" y="-19" as="offset" />
          </mxGeometry>
        </mxCell>
        <mxCell id="obUvVuYNaNYTeRpNwb37-90" value="Yes" style="edgeStyle=orthogonalEdgeStyle;rounded=0;orthogonalLoop=1;jettySize=auto;html=1;" parent="1" source="obUvVuYNaNYTeRpNwb37-91" target="obUvVuYNaNYTeRpNwb37-94" edge="1">
          <mxGeometry relative="1" as="geometry" />
        </mxCell>
        <mxCell id="obUvVuYNaNYTeRpNwb37-91" value="&lt;font face=&quot;Lucida Console&quot; style=&quot;font-size: 14px&quot;&gt;check is in creation?&lt;br&gt;&lt;/font&gt;" style="rhombus;whiteSpace=wrap;html=1;" parent="1" vertex="1">
          <mxGeometry x="-420" y="300" width="200" height="80" as="geometry" />
        </mxCell>
        <mxCell id="obUvVuYNaNYTeRpNwb37-92" value="Yes" style="edgeStyle=orthogonalEdgeStyle;rounded=0;orthogonalLoop=1;jettySize=auto;html=1;exitX=0.5;exitY=0;exitDx=0;exitDy=0;" parent="1" source="obUvVuYNaNYTeRpNwb37-94" target="obUvVuYNaNYTeRpNwb37-83" edge="1">
          <mxGeometry relative="1" as="geometry">
            <mxPoint x="-500" y="20" as="targetPoint" />
            <Array as="points">
              <mxPoint x="-640" y="80" />
            </Array>
          </mxGeometry>
        </mxCell>
        <mxCell id="obUvVuYNaNYTeRpNwb37-93" value="No" style="edgeStyle=orthogonalEdgeStyle;rounded=0;orthogonalLoop=1;jettySize=auto;html=1;" parent="1" source="obUvVuYNaNYTeRpNwb37-94" target="obUvVuYNaNYTeRpNwb37-97" edge="1">
          <mxGeometry relative="1" as="geometry" />
        </mxCell>
        <mxCell id="obUvVuYNaNYTeRpNwb37-94" value="&lt;p style=&quot;line-height: 80%&quot;&gt;&lt;span style=&quot;font-family: &amp;#34;lucida console&amp;#34; ; font-size: 14px&quot;&gt;earlySingletonObjects&lt;br&gt;&lt;/span&gt;&lt;font face=&quot;Lucida Console&quot; style=&quot;font-size: 14px ; line-height: 60%&quot;&gt;&lt;br&gt;&lt;/font&gt;&lt;span style=&quot;font-family: &amp;#34;lucida console&amp;#34; ; font-size: 14px ; line-height: 0%&quot;&gt;check exist ?&lt;/span&gt;&lt;font face=&quot;Lucida Console&quot; style=&quot;font-size: 14px&quot;&gt;&lt;br&gt;&lt;/font&gt;&lt;/p&gt;" style="rhombus;whiteSpace=wrap;html=1;" parent="1" vertex="1">
          <mxGeometry x="-740" y="300" width="200" height="80" as="geometry" />
        </mxCell>
        <mxCell id="obUvVuYNaNYTeRpNwb37-95" value="No" style="edgeStyle=orthogonalEdgeStyle;rounded=0;orthogonalLoop=1;jettySize=auto;html=1;entryX=0;entryY=0.5;entryDx=0;entryDy=0;exitX=0.5;exitY=1;exitDx=0;exitDy=0;" parent="1" source="obUvVuYNaNYTeRpNwb37-97" target="obUvVuYNaNYTeRpNwb37-85" edge="1">
          <mxGeometry relative="1" as="geometry">
            <mxPoint x="-440" y="605.5" as="targetPoint" />
            <Array as="points">
              <mxPoint x="-640" y="595.5" />
            </Array>
          </mxGeometry>
        </mxCell>
        <mxCell id="obUvVuYNaNYTeRpNwb37-96" value="Yes" style="edgeStyle=orthogonalEdgeStyle;rounded=0;orthogonalLoop=1;jettySize=auto;html=1;exitX=0;exitY=0.5;exitDx=0;exitDy=0;entryX=1;entryY=0.5;entryDx=0;entryDy=0;" parent="1" source="obUvVuYNaNYTeRpNwb37-97" target="obUvVuYNaNYTeRpNwb37-100" edge="1">
          <mxGeometry relative="1" as="geometry">
            <mxPoint x="-712" y="485.5" as="sourcePoint" />
          </mxGeometry>
        </mxCell>
        <mxCell id="obUvVuYNaNYTeRpNwb37-97" value="&lt;p style=&quot;line-height: 80%&quot;&gt;&lt;font style=&quot;font-size: 14px&quot; face=&quot;lucida console&quot;&gt;allowEarlyReference&lt;/font&gt;&lt;/p&gt;" style="rhombus;whiteSpace=wrap;html=1;" parent="1" vertex="1">
          <mxGeometry x="-740" y="445.5" width="200" height="80" as="geometry" />
        </mxCell>
        <mxCell id="obUvVuYNaNYTeRpNwb37-98" value="No" style="edgeStyle=orthogonalEdgeStyle;rounded=0;orthogonalLoop=1;jettySize=auto;html=1;exitX=0.5;exitY=1;exitDx=0;exitDy=0;entryX=0;entryY=0.75;entryDx=0;entryDy=0;" parent="1" source="obUvVuYNaNYTeRpNwb37-100" target="obUvVuYNaNYTeRpNwb37-85" edge="1">
          <mxGeometry relative="1" as="geometry" />
        </mxCell>
        <mxCell id="obUvVuYNaNYTeRpNwb37-99" value="&lt;font face=&quot;Lucida Console&quot; style=&quot;font-size: 14px&quot;&gt;remove&lt;/font&gt;" style="edgeStyle=orthogonalEdgeStyle;rounded=0;orthogonalLoop=1;jettySize=auto;html=1;entryX=-0.006;entryY=0.812;entryDx=0;entryDy=0;entryPerimeter=0;" parent="1" source="obUvVuYNaNYTeRpNwb37-100" target="obUvVuYNaNYTeRpNwb37-82" edge="1">
          <mxGeometry x="0.0976" relative="1" as="geometry">
            <mxPoint x="-1050" y="390" as="targetPoint" />
            <Array as="points">
              <mxPoint x="-1100" y="486" />
              <mxPoint x="-1100" y="381" />
            </Array>
            <mxPoint as="offset" />
          </mxGeometry>
        </mxCell>
        <mxCell id="obUvVuYNaNYTeRpNwb37-100" value="&lt;p style=&quot;line-height: 80%&quot;&gt;&lt;font face=&quot;Lucida Console&quot; style=&quot;font-size: 14px&quot;&gt;singletonFactories&lt;br&gt;&lt;br&gt;check exist ?&lt;/font&gt;&lt;/p&gt;" style="rhombus;whiteSpace=wrap;html=1;" parent="1" vertex="1">
          <mxGeometry x="-992" y="445.5" width="200" height="80" as="geometry" />
        </mxCell>
        <mxCell id="obUvVuYNaNYTeRpNwb37-101" value="" style="endArrow=none;dashed=1;html=1;exitX=0;exitY=0.5;exitDx=0;exitDy=0;entryX=0.5;entryY=1;entryDx=0;entryDy=0;" parent="1" source="obUvVuYNaNYTeRpNwb37-104" target="obUvVuYNaNYTeRpNwb37-79" edge="1">
          <mxGeometry width="50" height="50" relative="1" as="geometry">
            <mxPoint x="-50" y="350" as="sourcePoint" />
            <mxPoint y="300" as="targetPoint" />
          </mxGeometry>
        </mxCell>
        <mxCell id="obUvVuYNaNYTeRpNwb37-102" value="意味着三级缓存中都没有" style="text;html=1;align=center;verticalAlign=middle;resizable=0;points=[];autosize=1;" parent="1" vertex="1">
          <mxGeometry x="-480" y="450" width="150" height="20" as="geometry" />
        </mxCell>
        <mxCell id="obUvVuYNaNYTeRpNwb37-103" value="" style="group" parent="1" vertex="1" connectable="0">
          <mxGeometry x="-420" y="180" width="200" height="80" as="geometry" />
        </mxCell>
        <mxCell id="obUvVuYNaNYTeRpNwb37-104" value="&lt;p style=&quot;line-height: 80%&quot;&gt;&lt;span style=&quot;font-family: &amp;#34;lucida console&amp;#34; ; font-size: 14px&quot;&gt;singletonObjects&lt;br&gt;&lt;/span&gt;&lt;font face=&quot;Lucida Console&quot; style=&quot;font-size: 14px&quot;&gt;&lt;br&gt;check exist ?&lt;/font&gt;&lt;font face=&quot;Lucida Console&quot; style=&quot;font-size: 14px&quot;&gt;&lt;br&gt;&lt;/font&gt;&lt;/p&gt;" style="rhombus;whiteSpace=wrap;html=1;" parent="obUvVuYNaNYTeRpNwb37-103" vertex="1">
          <mxGeometry width="200" height="80" as="geometry" />
        </mxCell>
        <mxCell id="obUvVuYNaNYTeRpNwb37-105" value="意味着在二级、三级缓存中" style="text;html=1;align=center;verticalAlign=middle;resizable=0;points=[];autosize=1;" parent="1" vertex="1">
          <mxGeometry x="-560" y="345" width="160" height="20" as="geometry" />
        </mxCell>
        <mxCell id="obUvVuYNaNYTeRpNwb37-106" value="" style="endArrow=none;dashed=1;html=1;exitX=0;exitY=0.5;exitDx=0;exitDy=0;entryX=0.5;entryY=1;entryDx=0;entryDy=0;" parent="1" source="obUvVuYNaNYTeRpNwb37-94" target="obUvVuYNaNYTeRpNwb37-80" edge="1">
          <mxGeometry width="50" height="50" relative="1" as="geometry">
            <mxPoint x="-712" y="340" as="sourcePoint" />
            <mxPoint x="88" y="330" as="targetPoint" />
          </mxGeometry>
        </mxCell>
        <mxCell id="obUvVuYNaNYTeRpNwb37-107" value="不允许提前引用" style="text;html=1;align=center;verticalAlign=middle;resizable=0;points=[];autosize=1;" parent="1" vertex="1">
          <mxGeometry x="-560" y="565.5" width="100" height="20" as="geometry" />
        </mxCell>
        <mxCell id="obUvVuYNaNYTeRpNwb37-108" value="" style="endArrow=none;dashed=1;html=1;exitX=0.5;exitY=0;exitDx=0;exitDy=0;entryX=0.5;entryY=1;entryDx=0;entryDy=0;" parent="1" source="obUvVuYNaNYTeRpNwb37-100" target="obUvVuYNaNYTeRpNwb37-82" edge="1">
          <mxGeometry width="50" height="50" relative="1" as="geometry">
            <mxPoint x="98" y="580" as="sourcePoint" />
            <mxPoint x="148" y="530" as="targetPoint" />
          </mxGeometry>
        </mxCell>
        <mxCell id="obUvVuYNaNYTeRpNwb37-109" value="" style="edgeStyle=orthogonalEdgeStyle;rounded=0;orthogonalLoop=1;jettySize=auto;html=1;" parent="1" source="obUvVuYNaNYTeRpNwb37-110" target="obUvVuYNaNYTeRpNwb37-112" edge="1">
          <mxGeometry relative="1" as="geometry" />
        </mxCell>
        <mxCell id="obUvVuYNaNYTeRpNwb37-110" value="&lt;font face=&quot;Lucida Console&quot; style=&quot;font-size: 14px&quot;&gt;factory.getObject()&lt;/font&gt;" style="rounded=1;whiteSpace=wrap;html=1;fillColor=#d5e8d4;strokeColor=#82b366;" parent="1" vertex="1">
          <mxGeometry x="-405" y="660" width="170" height="50" as="geometry" />
        </mxCell>
        <mxCell id="obUvVuYNaNYTeRpNwb37-111" value="&lt;font face=&quot;Lucida Console&quot; style=&quot;font-size: 14px&quot;&gt;remove&lt;/font&gt;" style="edgeStyle=orthogonalEdgeStyle;rounded=0;orthogonalLoop=1;jettySize=auto;html=1;strokeColor=#FF0000;" parent="1" source="obUvVuYNaNYTeRpNwb37-112" edge="1">
          <mxGeometry relative="1" as="geometry">
            <mxPoint x="-1000" y="389" as="targetPoint" />
            <Array as="points">
              <mxPoint x="-1000" y="765" />
              <mxPoint x="-1000" y="389" />
            </Array>
          </mxGeometry>
        </mxCell>
        <mxCell id="obUvVuYNaNYTeRpNwb37-112" value="&lt;font face=&quot;Lucida Console&quot; style=&quot;font-size: 14px&quot;&gt;addSingleton&lt;/font&gt;" style="rounded=1;whiteSpace=wrap;html=1;fillColor=#d5e8d4;strokeColor=#82b366;" parent="1" vertex="1">
          <mxGeometry x="-405" y="740" width="170" height="50" as="geometry" />
        </mxCell>
        <mxCell id="obUvVuYNaNYTeRpNwb37-113" value="&lt;font face=&quot;Lucida Console&quot; style=&quot;font-size: 14px&quot;&gt;remove&lt;/font&gt;" style="endArrow=classic;html=1;exitX=0.145;exitY=0;exitDx=0;exitDy=0;exitPerimeter=0;strokeColor=#FF0000;" parent="1" source="obUvVuYNaNYTeRpNwb37-82" edge="1">
          <mxGeometry width="50" height="50" relative="1" as="geometry">
            <mxPoint x="-1019" y="341" as="sourcePoint" />
            <mxPoint x="-1003" y="274" as="targetPoint" />
          </mxGeometry>
        </mxCell>
        <mxCell id="obUvVuYNaNYTeRpNwb37-114" value="&lt;font face=&quot;Lucida Console&quot; style=&quot;font-size: 14px&quot;&gt;put&lt;/font&gt;" style="endArrow=classic;html=1;strokeColor=#FF0000;exitX=0.15;exitY=-0.043;exitDx=0;exitDy=0;exitPerimeter=0;entryX=0.153;entryY=1.043;entryDx=0;entryDy=0;entryPerimeter=0;" parent="1" source="obUvVuYNaNYTeRpNwb37-80" target="obUvVuYNaNYTeRpNwb37-79" edge="1">
          <mxGeometry width="50" height="50" relative="1" as="geometry">
            <mxPoint x="-750" y="240" as="sourcePoint" />
            <mxPoint x="-700" y="190" as="targetPoint" />
          </mxGeometry>
        </mxCell>
        <mxCell id="obUvVuYNaNYTeRpNwb37-115" value="&lt;font face=&quot;Lucida Console&quot; style=&quot;font-size: 14px&quot;&gt;实际执行的是：&lt;br&gt;AbstractAutowireCapableBeanFactory#createBean&lt;/font&gt;" style="text;html=1;align=center;verticalAlign=middle;resizable=0;points=[];autosize=1;" parent="1" vertex="1">
          <mxGeometry x="-810" y="670" width="400" height="30" as="geometry" />
        </mxCell>
        <mxCell id="obUvVuYNaNYTeRpNwb37-119" value="" style="edgeStyle=orthogonalEdgeStyle;rounded=0;orthogonalLoop=1;jettySize=auto;html=1;fontFamily=Lucida Console;fontSize=14;" parent="1" source="obUvVuYNaNYTeRpNwb37-117" target="obUvVuYNaNYTeRpNwb37-118" edge="1">
          <mxGeometry relative="1" as="geometry" />
        </mxCell>
        <mxCell id="obUvVuYNaNYTeRpNwb37-117" value="&lt;font style=&quot;font-size: 14px;&quot; face=&quot;Lucida Console&quot;&gt;createBeanInstance&lt;/font&gt;" style="rounded=1;whiteSpace=wrap;html=1;fillColor=#d5e8d4;strokeColor=#82b366;" parent="1" vertex="1">
          <mxGeometry x="-840" y="880" width="200" height="60" as="geometry" />
        </mxCell>
        <mxCell id="obUvVuYNaNYTeRpNwb37-121" value="" style="edgeStyle=orthogonalEdgeStyle;rounded=0;orthogonalLoop=1;jettySize=auto;html=1;fontFamily=Lucida Console;fontSize=14;" parent="1" source="obUvVuYNaNYTeRpNwb37-118" target="obUvVuYNaNYTeRpNwb37-120" edge="1">
          <mxGeometry relative="1" as="geometry" />
        </mxCell>
        <mxCell id="obUvVuYNaNYTeRpNwb37-118" value="&lt;font style=&quot;font-size: 14px;&quot; face=&quot;Lucida Console&quot;&gt;populateBean&lt;/font&gt;" style="whiteSpace=wrap;html=1;fillColor=#d5e8d4;strokeColor=#82b366;rounded=1;" parent="1" vertex="1">
          <mxGeometry x="-810" y="1040" width="140" height="60" as="geometry" />
        </mxCell>
        <mxCell id="obUvVuYNaNYTeRpNwb37-120" value="&lt;font face=&quot;Lucida Console&quot; style=&quot;font-size: 14px;&quot;&gt;initializeBean&lt;/font&gt;" style="whiteSpace=wrap;html=1;fillColor=#d5e8d4;strokeColor=#82b366;rounded=1;" parent="1" vertex="1">
          <mxGeometry x="-820" y="1200" width="160" height="60" as="geometry" />
        </mxCell>
        <mxCell id="JWz42g-bFt8k7ncyeVSP-14" style="edgeStyle=orthogonalEdgeStyle;rounded=0;orthogonalLoop=1;jettySize=auto;html=1;exitX=0.1;exitY=0.5;exitDx=0;exitDy=0;exitPerimeter=0;fontFamily=Lucida Console;fontSize=14;" parent="1" source="JWz42g-bFt8k7ncyeVSP-1" edge="1">
          <mxGeometry relative="1" as="geometry">
            <mxPoint x="-740" y="980" as="targetPoint" />
          </mxGeometry>
        </mxCell>
        <mxCell id="JWz42g-bFt8k7ncyeVSP-1" value="" style="shape=curlyBracket;whiteSpace=wrap;html=1;rounded=1;" parent="1" vertex="1">
          <mxGeometry x="-630" y="920" width="20" height="70" as="geometry" />
        </mxCell>
        <mxCell id="JWz42g-bFt8k7ncyeVSP-2" value="&lt;font style=&quot;font-size: 14px;&quot; face=&quot;Lucida Console&quot;&gt;MergedBeanDefinitionPostProcessor#postProcessMergedBeanDefinition&lt;/font&gt;" style="text;html=1;align=center;verticalAlign=middle;resizable=0;points=[];autosize=1;strokeColor=none;fillColor=none;" parent="1" vertex="1">
          <mxGeometry x="-610" y="930" width="560" height="20" as="geometry" />
        </mxCell>
        <mxCell id="JWz42g-bFt8k7ncyeVSP-3" value="DefaultSingletonBeanRegistry#addSingletonFactory" style="text;html=1;align=center;verticalAlign=middle;resizable=0;points=[];autosize=1;strokeColor=none;fillColor=none;fontSize=14;fontFamily=Lucida Console;" parent="1" vertex="1">
          <mxGeometry x="-610" y="970" width="420" height="20" as="geometry" />
        </mxCell>
        <mxCell id="JWz42g-bFt8k7ncyeVSP-4" value="InstantiationAwareBeanPostProcessor#postProcessAfterInstantiation" style="text;html=1;align=center;verticalAlign=middle;resizable=0;points=[];autosize=1;strokeColor=none;fillColor=none;fontSize=14;fontFamily=Lucida Console;" parent="1" vertex="1">
          <mxGeometry x="-650" y="1030" width="560" height="20" as="geometry" />
        </mxCell>
        <mxCell id="JWz42g-bFt8k7ncyeVSP-7" value="" style="shape=curlyBracket;whiteSpace=wrap;html=1;rounded=1;" parent="1" vertex="1">
          <mxGeometry x="-670" y="1020" width="20" height="130" as="geometry" />
        </mxCell>
        <mxCell id="JWz42g-bFt8k7ncyeVSP-9" value="InstantiationAwareBeanPostProcessor#postProcessPropertyValues" style="text;html=1;align=center;verticalAlign=middle;resizable=0;points=[];autosize=1;strokeColor=none;fillColor=none;fontSize=14;fontFamily=Lucida Console;" parent="1" vertex="1">
          <mxGeometry x="-651" y="1080" width="530" height="20" as="geometry" />
        </mxCell>
        <mxCell id="JWz42g-bFt8k7ncyeVSP-10" value="InstantiationAwareBeanPostProcessor#postProcessProperties" style="text;html=1;align=center;verticalAlign=middle;resizable=0;points=[];autosize=1;strokeColor=none;fillColor=none;fontSize=14;fontFamily=Lucida Console;" parent="1" vertex="1">
          <mxGeometry x="-653" y="1055" width="500" height="20" as="geometry" />
        </mxCell>
        <mxCell id="JWz42g-bFt8k7ncyeVSP-11" value="AbstractAutowireCapableBeanFactory#checkDependencies" style="text;html=1;align=center;verticalAlign=middle;resizable=0;points=[];autosize=1;strokeColor=none;fillColor=none;fontSize=14;fontFamily=Lucida Console;" parent="1" vertex="1">
          <mxGeometry x="-649" y="1105" width="450" height="20" as="geometry" />
        </mxCell>
        <mxCell id="JWz42g-bFt8k7ncyeVSP-12" value="AbstractAutowireCapableBeanFactory#applyPropertyValues" style="text;html=1;align=center;verticalAlign=middle;resizable=0;points=[];autosize=1;strokeColor=none;fillColor=none;fontSize=14;fontFamily=Lucida Console;" parent="1" vertex="1">
          <mxGeometry x="-650" y="1130" width="470" height="20" as="geometry" />
        </mxCell>
        <mxCell id="JWz42g-bFt8k7ncyeVSP-15" value="" style="shape=curlyBracket;whiteSpace=wrap;html=1;rounded=1;" parent="1" vertex="1">
          <mxGeometry x="-660" y="1170" width="20" height="170" as="geometry" />
        </mxCell>
        <UserObject label="BeanNameAware#setBeanName" id="JWz42g-bFt8k7ncyeVSP-16">
          <mxCell style="text;html=1;align=center;verticalAlign=middle;resizable=0;points=[];autosize=1;strokeColor=none;fillColor=none;fontSize=14;fontFamily=Lucida Console;" parent="1" vertex="1">
            <mxGeometry x="-644" y="1170" width="230" height="20" as="geometry" />
          </mxCell>
        </UserObject>
        <mxCell id="JWz42g-bFt8k7ncyeVSP-18" value="BeanClassLoaderAware#setBeanClassLoader" style="text;html=1;align=center;verticalAlign=middle;resizable=0;points=[];autosize=1;strokeColor=none;fillColor=none;fontSize=14;fontFamily=Lucida Console;" parent="1" vertex="1">
          <mxGeometry x="-640" y="1190" width="340" height="20" as="geometry" />
        </mxCell>
        <mxCell id="JWz42g-bFt8k7ncyeVSP-19" value="BeanFactoryAware#setBeanFactory" style="text;html=1;align=center;verticalAlign=middle;resizable=0;points=[];autosize=1;strokeColor=none;fillColor=none;fontSize=14;fontFamily=Lucida Console;" parent="1" vertex="1">
          <mxGeometry x="-644" y="1210" width="280" height="20" as="geometry" />
        </mxCell>
        <mxCell id="JWz42g-bFt8k7ncyeVSP-20" value="BeanPostProcessor#postProcessBeforeInitialization" style="text;html=1;align=center;verticalAlign=middle;resizable=0;points=[];autosize=1;strokeColor=#d6b656;fillColor=#fff2cc;fontSize=14;fontFamily=Lucida Console;" parent="1" vertex="1">
          <mxGeometry x="-640" y="1241" width="430" height="20" as="geometry" />
        </mxCell>
        <mxCell id="JWz42g-bFt8k7ncyeVSP-21" value="InitializingBean#afterPropertiesSet" style="text;html=1;align=center;verticalAlign=middle;resizable=0;points=[];autosize=1;strokeColor=none;fillColor=none;fontSize=14;fontFamily=Lucida Console;" parent="1" vertex="1">
          <mxGeometry x="-640" y="1270" width="310" height="20" as="geometry" />
        </mxCell>
        <mxCell id="JWz42g-bFt8k7ncyeVSP-22" value="AbstractAutowireCapableBeanFactory#invokeCustomInitMethod" style="text;html=1;align=center;verticalAlign=middle;resizable=0;points=[];autosize=1;strokeColor=none;fillColor=none;fontSize=14;fontFamily=Lucida Console;" parent="1" vertex="1">
          <mxGeometry x="-640" y="1300" width="500" height="20" as="geometry" />
        </mxCell>
        <mxCell id="JWz42g-bFt8k7ncyeVSP-23" value="BeanPostProcessor#postProcessAfterInitialization" style="text;html=1;align=center;verticalAlign=middle;resizable=0;points=[];autosize=1;strokeColor=#d6b656;fillColor=#fff2cc;fontSize=14;fontFamily=Lucida Console;" parent="1" vertex="1">
          <mxGeometry x="-640" y="1330" width="420" height="20" as="geometry" />
        </mxCell>
        <mxCell id="6irYn9VsqW0fFZLGUfPC-3" value="" style="edgeStyle=orthogonalEdgeStyle;rounded=0;orthogonalLoop=1;jettySize=auto;html=1;fontFamily=Lucida Console;fontSize=14;" edge="1" parent="1" source="6irYn9VsqW0fFZLGUfPC-1" target="6irYn9VsqW0fFZLGUfPC-2">
          <mxGeometry relative="1" as="geometry" />
        </mxCell>
        <mxCell id="6irYn9VsqW0fFZLGUfPC-1" value="postProcessBeanDefinitionRegistry" style="rounded=1;whiteSpace=wrap;html=1;fontFamily=Lucida Console;fontSize=14;fillColor=#d5e8d4;strokeColor=#82b366;" vertex="1" parent="1">
          <mxGeometry x="-520" y="1720" width="290" height="60" as="geometry" />
        </mxCell>
        <mxCell id="6irYn9VsqW0fFZLGUfPC-2" value="processConfigBeanDefinitions" style="whiteSpace=wrap;html=1;fontSize=14;fontFamily=Lucida Console;fillColor=#d5e8d4;strokeColor=#82b366;rounded=1;" vertex="1" parent="1">
          <mxGeometry x="-502.5" y="1850" width="255" height="60" as="geometry" />
        </mxCell>
        <mxCell id="6irYn9VsqW0fFZLGUfPC-4" value="ConfigurationClassParser#doProcessConfigurationClass" style="text;html=1;align=center;verticalAlign=middle;resizable=0;points=[];autosize=1;strokeColor=none;fillColor=none;fontSize=14;fontFamily=Lucida Console;" vertex="1" parent="1">
          <mxGeometry x="-1110" y="1720" width="450" height="20" as="geometry" />
        </mxCell>
        <mxCell id="6irYn9VsqW0fFZLGUfPC-5" value="" style="shape=curlyBracket;whiteSpace=wrap;html=1;rounded=1;fontFamily=Lucida Console;fontSize=14;" vertex="1" parent="1">
          <mxGeometry x="-1117.5" y="1740" width="20" height="160" as="geometry" />
        </mxCell>
        <mxCell id="6irYn9VsqW0fFZLGUfPC-7" value="@Component" style="text;html=1;align=center;verticalAlign=middle;resizable=0;points=[];autosize=1;strokeColor=none;fillColor=none;fontSize=14;fontFamily=Lucida Console;" vertex="1" parent="1">
          <mxGeometry x="-1097.5" y="1750" width="100" height="20" as="geometry" />
        </mxCell>
        <mxCell id="6irYn9VsqW0fFZLGUfPC-8" value="@PropertySources / @PropertySource" style="text;html=1;align=center;verticalAlign=middle;resizable=0;points=[];autosize=1;strokeColor=none;fillColor=none;fontSize=14;fontFamily=Lucida Console;" vertex="1" parent="1">
          <mxGeometry x="-1097.5" y="1770" width="300" height="20" as="geometry" />
        </mxCell>
        <mxCell id="6irYn9VsqW0fFZLGUfPC-9" value="@ComponentScan / @ComponentScan" style="text;html=1;align=center;verticalAlign=middle;resizable=0;points=[];autosize=1;strokeColor=none;fillColor=none;fontSize=14;fontFamily=Lucida Console;" vertex="1" parent="1">
          <mxGeometry x="-1100.5" y="1790" width="280" height="20" as="geometry" />
        </mxCell>
        <mxCell id="6irYn9VsqW0fFZLGUfPC-11" value="@Import / @ImportResource" style="text;html=1;align=center;verticalAlign=middle;resizable=0;points=[];autosize=1;strokeColor=none;fillColor=none;fontSize=14;fontFamily=Lucida Console;" vertex="1" parent="1">
          <mxGeometry x="-1100.5" y="1810" width="230" height="20" as="geometry" />
        </mxCell>
        <mxCell id="6irYn9VsqW0fFZLGUfPC-12" value="@Bean" style="text;html=1;align=center;verticalAlign=middle;resizable=0;points=[];autosize=1;strokeColor=none;fillColor=none;fontSize=14;fontFamily=Lucida Console;" vertex="1" parent="1">
          <mxGeometry x="-1099.5" y="1830" width="60" height="20" as="geometry" />
        </mxCell>
        <mxCell id="6irYn9VsqW0fFZLGUfPC-13" value="processInterfaces" style="text;html=1;align=center;verticalAlign=middle;resizable=0;points=[];autosize=1;strokeColor=none;fillColor=none;fontSize=14;fontFamily=Lucida Console;" vertex="1" parent="1">
          <mxGeometry x="-1100.5" y="1850" width="160" height="20" as="geometry" />
        </mxCell>
        <mxCell id="6irYn9VsqW0fFZLGUfPC-14" value="process superclass, if any [递归]" style="text;html=1;align=center;verticalAlign=middle;resizable=0;points=[];autosize=1;strokeColor=none;fillColor=none;fontSize=14;fontFamily=Lucida Console;" vertex="1" parent="1">
          <mxGeometry x="-1100.5" y="1870" width="290" height="20" as="geometry" />
        </mxCell>
        <mxCell id="6irYn9VsqW0fFZLGUfPC-15" value="ConfigurationClassBeanDefinitionReader#loadBeanDefinitions" style="text;html=1;align=center;verticalAlign=middle;resizable=0;points=[];autosize=1;strokeColor=none;fillColor=none;fontSize=14;fontFamily=Lucida Console;" vertex="1" parent="1">
          <mxGeometry x="-1110" y="1920" width="500" height="20" as="geometry" />
        </mxCell>
      </root>
    </mxGraphModel>
  </diagram>
</mxfile>
